# xmcd
#
# Track frame offsets:
#	150
#	10360
#	39115
#	60122
#	88730
#	110671
#	141108
#	172965
#
# Disc length: 4079 seconds
#
# Revision: 1
# Processed by: cddbd v1.5.2PL0 Copyright (c) Steve Scherf et al.
# Submitted via: EZCDAudioConverter 2.1.7.1
#
DISCID=5a0fed08
DTITLE=V/A - Real World Notes V06
DYEAR=1900
DGENRE=
TTITLE0=Ayub Ogada - Kwero
TTITLE1=Omar Pene and Super Diamono - Diaraf
TTITLE2=Djivan Gasparyan and Michael Brook - Take My Heart
TTITLE3=Yungchen Lhamo - Coming Home
TTITLE4=Assorted Artists from Arcane - Chinese Canon
TTITLE5=Peter Gabriel - In The Sun
TTITLE6=Papa Wemba - Awa Y' Okeyi
TTITLE7=Various Artist - Ecd Track08
EXTD=
EXTT0=
EXTT1=
EXTT2=
EXTT3=
EXTT4=
EXTT5=
EXTT6=
EXTT7=
PLAYORDER=
